# xmcd
#
# Track frame offsets: 
#        150
#        19062
#        35872
#
# Disc length: 661 seconds
#
# Revision: 2
# Processed by: cddbd v1.5.2PL0 Copyright (c) Steve Scherf et al.
# Submitted via: ExactAudioCopy v0.99pb4
#
DISCID=20029303
DTITLE=Teenage Fanclub - I Need Direction
DYEAR=2000
DGENRE=Indie
TTITLE0=I Need Direction
TTITLE1=I Lied
TTITLE2=Here Comes Your Man
EXTD=YEAR: 2000
EXTT0=
EXTT1=
EXTT2=
PLAYORDER=
